<?xml version="1.0" encoding="UTF-8" standalone="no"?>
<!-- Generator: Adobe Illustrator 24.0.3, SVG Export Plug-In . SVG Version: 6.00 Build 0)  -->

<svg
   version="1.1"
   id="Layer_1"
   x="0px"
   y="0px"
   viewBox="0 0 128 128"
   style="enable-background:new 0 0 128 128;"
   xml:space="preserve"
   xmlns="http://www.w3.org/2000/svg"
   xmlns:svg="http://www.w3.org/2000/svg"><defs
   id="defs11" />
<path
   style="fill:#5bcefa"
   d="m 124,38.2 c -1.8,1.1 -3.7,2.1 -5.4,2.8 -1.8,0.8 -3.5,1.5 -5.2,2 -1.7,0.5 -3.4,1 -5.1,1.3 -1.7,0.3 -3.3,0.5 -4.9,0.7 -1.6,0.2 -3.2,0.2 -4.8,0.2 C 97,45.2 95.5,45.1 94,45 92.5,44.9 91,44.7 89.5,44.5 88,44.3 86.6,44 85.1,43.8 83.6,43.6 82.2,43.2 80.8,42.9 79.4,42.6 78,42.2 76.6,41.9 75.2,41.5 73.8,41.1 72.4,40.7 71,40.3 69.6,39.9 68.2,39.5 66.8,39.1 65.4,38.7 64,38.3 62.6,37.9 61.2,37.5 59.8,37.1 58.4,36.7 57,36.3 55.6,35.9 54.2,35.5 52.8,35.1 51.4,34.7 50,34.3 48.6,34 47.2,33.7 45.8,33.4 44.3,33.1 42.9,32.8 41.4,32.5 40,32.3 38.5,32.1 37,31.9 35.5,31.7 34,31.6 c -1.5,-0.1 -3.1,-0.2 -4.6,-0.2 -1.5,0 -3.1,0.1 -4.8,0.2 -1.7,0.1 -3.2,0.4 -4.9,0.7 -1.7,0.3 -3.3,0.7 -5.1,1.3 -1.8,0.6 -3.5,1.2 -5.2,2 -1.8,0.8 -3.6,1.7 -5.4,2.8 v -5 c 0,0 0,-5.9 0,-7.4 v -5 c 1.8,-1.1 3.7,-2.1 5.4,-2.9 1.7,-0.8 3.5,-1.5 5.2,-2 1.7,-0.5 3.4,-0.9 5.1,-1.3 1.7,-0.3 3.3,-0.5 4.9,-0.7 1.6,-0.1 3.2,-0.2 4.8,-0.2 1.6,0 3.1,0.1 4.6,0.2 1.5,0.1 3,0.3 4.5,0.5 1.5,0.2 3,0.4 4.4,0.7 1.4,0.3 2.9,0.6 4.3,0.9 1.4,0.3 2.8,0.7 4.2,1 1.4,0.4 2.8,0.8 4.2,1.1 1.4,0.3 2.8,0.8 4.2,1.2 1.4,0.4 2.8,0.8 4.2,1.2 1.4,0.4 2.8,0.8 4.2,1.2 1.4,0.4 2.8,0.8 4.2,1.2 1.4,0.4 2.8,0.8 4.2,1.1 1.4,0.3 2.8,0.7 4.2,1 1.4,0.3 2.9,0.6 4.3,0.9 1.4,0.3 2.9,0.5 4.4,0.7 1.5,0.2 3,0.4 4.5,0.5 1.5,0.1 3.1,0.2 4.6,0.2 1.5,0 3.1,-0.1 4.8,-0.2 1.7,-0.1 3.2,-0.4 4.9,-0.7 1.7,-0.3 3.3,-0.7 5.1,-1.3 1.8,-0.6 3.5,-1.2 5.2,-2 1.7,-0.8 3.6,-1.7 5.4,-2.9 v 5 4.4 c 0,0.4 0,6.5 0,8.4 z"
   id="path1" /><path
   style="fill:#f5a9b8"
   d="m 124,55.6 c -6.76,4.13 -14.71,6.63 -22.63,6.96 -8,0.34 -15.89,-1.13 -23.62,-3 C 61.77,55.71 46.09,48.79 29.4,48.8 20.53,48.8 11.7,51.14 4,55.6 4,51.26 4,38.21 4,38.21 c 0,0 1.92,-1.13 2.58,-1.47 2.18,-1.15 4.5,-2.15 6.83,-2.95 4.91,-1.69 10.07,-2.48 15.25,-2.58 10.64,-0.19 21.01,2.8 31.14,5.69 10.3,2.94 20.53,6.26 31.2,7.6 11.47,1.44 23.05,-0.42 33,-6.5 0,5.87 0,11.73 0,17.6 z"
   id="path2" /><path
   style="fill:#ffffff"
   d="m 124,73 c -6.76,4.13 -14.71,6.63 -22.63,6.96 C 93.48,80.29 85.33,79.05 77.75,76.92 69.47,74.6 61.2,72.19 52.93,69.83 49.05,68.72 45.06,67.81 41.07,67.16 37.25,66.54 33.28,66 29.41,65.99 c -9.07,-0.03 -17.58,2.47 -25.4,7 0,-4.23 0,-17.4 0,-17.4 0,0 1.69,-0.99 2.25,-1.29 2.23,-1.2 4.6,-2.23 6.98,-3.07 4.95,-1.73 10.19,-2.54 15.42,-2.63 10.51,-0.18 20.75,2.73 30.76,5.58 10.43,2.99 20.78,6.36 31.58,7.72 11.47,1.44 23.05,-0.42 33,-6.5 0,5.87 0,11.73 0,17.6 z"
   id="path3" /><path
   style="fill:none"
   d="m 124,73 c -1.8,1.1 -3.7,2.1 -5.4,2.8 -1.8,0.8 -3.5,1.4 -5.2,2 -1.7,0.6 -3.4,0.9 -5.1,1.3 -1.7,0.3 -3.3,0.5 -4.9,0.7 C 101.8,80 100.2,80 98.6,80 97,80 95.5,79.9 94,79.8 92.5,79.7 91,79.5 89.5,79.3 88,79.1 86.6,78.9 85.1,78.6 83.6,78.3 82.2,78 80.8,77.7 79.4,77.4 78,77 76.6,76.6 75.2,76.2 73.8,75.8 72.4,75.4 71,75 69.6,74.6 68.2,74.2 66.8,73.8 65.4,73.4 64,73 62.6,72.6 61.2,72.2 59.8,71.8 58.4,71.4 57,71 55.6,70.6 54.2,70.2 52.8,69.8 51.4,69.4 50,69 48.6,68.7 47.2,68.4 45.8,68.1 44.3,67.8 42.9,67.5 41.4,67.2 40,67 38.5,66.8 37,66.6 35.5,66.4 34,66.3 32.5,66.2 30.9,66 29.4,66 c -1.5,0 -3.1,0.1 -4.8,0.2 -1.7,0.1 -3.2,0.4 -4.9,0.7 -1.7,0.3 -3.3,0.7 -5.1,1.3 -1.8,0.6 -3.5,1.2 -5.2,2 C 7.7,70.9 5.9,71.9 4,73 v -5 c 0,0 0,-5.9 0,-7.4 v -5 c 1.8,-1.1 3.7,-2.1 5.4,-2.8 1.7,-0.7 3.5,-1.5 5.2,-2 1.7,-0.5 3.4,-1 5.1,-1.3 1.7,-0.3 3.3,-0.5 4.9,-0.7 1.6,-0.1 3.2,-0.2 4.8,-0.2 1.6,0 3.1,0.1 4.6,0.2 1.5,0.1 3,0.3 4.5,0.5 1.5,0.2 3,0.5 4.4,0.7 1.4,0.2 2.9,0.6 4.3,0.9 1.4,0.3 2.8,0.7 4.2,1 1.4,0.4 2.8,0.8 4.2,1.2 1.4,0.4 2.8,0.8 4.2,1.2 1.4,0.4 2.8,0.8 4.2,1.2 1.4,0.4 2.8,0.8 4.2,1.2 1.4,0.4 2.8,0.8 4.2,1.2 1.4,0.4 2.8,0.8 4.2,1.2 1.4,0.4 2.8,0.7 4.2,1 1.4,0.3 2.9,0.6 4.3,0.9 1.4,0.3 2.9,0.5 4.4,0.7 1.5,0.2 3,0.4 4.5,0.5 1.5,0.1 3.1,0.2 4.6,0.2 1.5,0 3.1,-0.1 4.8,-0.2 1.7,-0.1 3.2,-0.4 4.9,-0.7 1.7,-0.3 3.3,-0.7 5.1,-1.3 1.8,-0.6 3.5,-1.2 5.2,-2 1.7,-0.8 3.6,-1.7 5.4,-2.8 v 5 7.6 c 0,0 0,3.1 0,5 z"
   id="path4" /><path
   style="fill:#f5a9b8"
   d="m 124,90.4 c -6.7,4.09 -14.43,6.47 -22.26,6.9 C 93.85,97.73 85.73,96.53 78.13,94.43 69.84,92.14 61.58,89.71 53.31,87.34 45.64,85.15 37.76,83.47 29.75,83.4 20.7,83.32 11.74,85.67 4,90.4 4,86.17 4,73 4,73 c 0,0 2.99,-1.69 3.7,-2.03 5.01,-2.43 10.28,-3.92 15.79,-4.63 10.97,-1.41 22,1.4 32.49,4.27 5.62,1.53 11.2,3.2 16.8,4.8 5.39,1.54 10.78,2.99 16.34,3.74 5.98,0.8 12.05,1.11 18.03,0.06 5.93,-1.05 11.7,-3.16 16.85,-6.31 0,5.83 0,11.67 0,17.5 z"
   id="path5" /><path
   style="fill:#5bcefa"
   d="m 124,107.8 c -1.8,1.1 -3.7,2.1 -5.4,2.8 -1.8,0.8 -3.5,1.4 -5.2,2 -1.7,0.6 -3.4,0.9 -5.1,1.3 -1.7,0.4 -3.3,0.5 -4.9,0.7 -1.6,0.1 -3.2,0.2 -4.8,0.2 -1.6,0 -3.1,-0.1 -4.6,-0.2 -1.5,-0.1 -3,-0.3 -4.5,-0.5 -1.5,-0.2 -2.9,-0.4 -4.4,-0.7 -1.5,-0.3 -2.9,-0.6 -4.3,-0.9 -1.4,-0.3 -2.8,-0.7 -4.2,-1.1 -1.4,-0.4 -2.8,-0.8 -4.2,-1.2 -1.4,-0.4 -2.8,-0.8 -4.2,-1.2 -1.4,-0.4 -2.8,-0.8 -4.2,-1.2 -1.4,-0.4 -2.8,-0.8 -4.2,-1.2 -1.4,-0.4 -2.8,-0.8 -4.2,-1.2 -1.4,-0.4 -2.8,-0.8 -4.2,-1.2 -1.4,-0.4 -2.8,-0.7 -4.2,-1.1 -1.4,-0.4 -2.9,-0.6 -4.3,-0.9 -1.5,-0.3 -2.9,-0.5 -4.4,-0.7 -1.5,-0.2 -3,-0.4 -4.5,-0.5 -1.5,-0.1 -3.1,-0.2 -4.6,-0.2 -1.5,0 -3.1,0.1 -4.8,0.2 -1.7,0.1 -3.2,0.4 -4.9,0.7 -1.7,0.3 -3.3,0.7 -5.1,1.3 -1.8,0.6 -3.5,1.2 -5.2,2 -1.7,0.8 -3.6,1.7 -5.4,2.8 v -5 c 0,0 0,-5.9 0,-7.4 v -5 c 1.8,-1.1 3.7,-2.1 5.4,-2.8 1.8,-0.8 3.5,-1.4 5.2,-2 1.7,-0.6 3.4,-0.9 5.1,-1.3 1.7,-0.3 3.3,-0.5 4.9,-0.7 1.6,-0.1 3.2,-0.2 4.8,-0.2 1.6,0 3.1,0.1 4.6,0.2 1.5,0.1 3,0.3 4.5,0.5 1.5,0.2 3,0.4 4.4,0.7 1.4,0.3 2.9,0.6 4.3,0.9 1.4,0.3 2.8,0.7 4.2,1.1 1.4,0.4 2.8,0.8 4.2,1.2 1.4,0.4 2.8,0.8 4.2,1.2 1.4,0.4 2.8,0.8 4.2,1.2 1.4,0.4 2.8,0.8 4.2,1.2 1.4,0.4 2.8,0.8 4.2,1.2 1.4,0.4 2.8,0.8 4.2,1.2 1.4,0.4 2.8,0.7 4.2,1.1 1.4,0.3 2.9,0.6 4.3,0.9 1.4,0.3 2.9,0.5 4.4,0.7 1.5,0.2 3,0.4 4.5,0.5 1.5,0.1 3.1,0.2 4.6,0.2 1.5,0 3.1,-0.1 4.8,-0.2 1.7,-0.1 3.2,-0.4 4.9,-0.7 1.7,-0.3 3.3,-0.7 5.1,-1.3 1.8,-0.6 3.5,-1.2 5.2,-2 1.7,-0.8 3.6,-1.7 5.4,-2.8 v 5 7.4 c 0,0 0,3.1 0,5 z"
   id="path6" /><path
   style="opacity:0.2;fill:#424242"
   d="m 120,26.6 c 0,8.17 0,79.41 0,79.41 0,0 -10.58,4.91 -20.25,4.78 -10.64,-0.13 -20.83,-2.55 -30.96,-5.5 -7.53,-2.19 -14.97,-4.64 -22.6,-6.48 -10.2,-2.46 -20.94,-2.84 -31.1,-0.06 -2.51,0.69 -4.75,1.83 -7.1,2.94 0,-7.04 0,-14.08 0,-21.13 0,-9.48 0,-58.13 0,-58.13 0,0 6.67,-3.86 16.68,-4.83 10.08,-0.98 20.09,1.28 29.73,3.94 18.93,5.22 39.05,13.97 58.85,7.75 2.31,-0.71 4.58,-1.66 6.75,-2.69 m 4,-6.2 c -8.9,5.44 -18.94,7.61 -29.31,6.95 C 84.33,26.68 74.3,23.65 64.38,20.81 54.33,17.94 44.15,14.78 33.65,14.08 28.56,13.74 19.91,13.9 11.44,17.23 10.34,17.66 4,20.89 4,20.89 c 0,0 0,84.51 0,86.91 8.76,-5.35 18.95,-7.51 29.13,-6.86 10.61,0.68 20.71,3.95 30.87,6.86 10.09,2.88 20.16,6.18 30.7,6.85 10.08,0.64 19.47,-1.06 29.3,-6.85 0,0 0,-85.79 0,-87.4 z"
   id="path9" />
</svg>
